<svg xmlns="http://www.w3.org/2000/svg" xmlns:xlink="http://www.w3.org/1999/xlink" width="1960" height="1015.24"><rect width="1960" height="1015.24" rx="5" ry="5" class="a"/><svg y="0%" x="0%"><circle cx="20" cy="20" r="6" fill="#ff5f58"/><circle cx="40" cy="20" r="6" fill="#ffbd2e"/><circle cx="60" cy="20" r="6" fill="#18c132"/></svg><svg height="955.24" viewBox="0 0 192 95.524" width="1920" x="15" xmlns="http://www.w3.org/2000/svg" xmlns:xlink="http://www.w3.org/1999/xlink" y="50"><style>@keyframes m{0%{transform:translateX(0)}1.2%{transform:translateX(-192px)}1.3%{transform:translateX(-576px)}5.9%{transform:translateX(-768px)}6.3%{transform:translateX(-960px)}7.1%{transform:translateX(-1728px)}7.2%{transform:translateX(-1920px)}10.7%{transform:translateX(-2112px)}11.4%{transform:translateX(-2304px)}12.6%{transform:translateX(-2496px)}13.2%{transform:translateX(-2688px)}14%{transform:translateX(-2880px)}15.5%{transform:translateX(-3072px)}16.1%{transform:translateX(-3264px)}16.5%{transform:translateX(-3456px)}17%{transform:translateX(-3648px)}18%{transform:translateX(-3840px)}18.5%{transform:translateX(-4032px)}19.1%{transform:translateX(-4224px)}22.8%{transform:translateX(-4416px)}24.5%{transform:translateX(-4608px)}25.1%{transform:translateX(-4800px)}25.7%{transform:translateX(-4992px)}26.3%{transform:translateX(-5184px)}28.3%{transform:translateX(-5376px)}29.7%{transform:translateX(-5568px)}30.4%{transform:translateX(-5760px)}31.3%{transform:translateX(-5952px)}33.1%{transform:translateX(-6144px)}37%{transform:translateX(-6336px)}37.5%{transform:translateX(-6528px)}40.7%{transform:translateX(-6720px)}41.9%{transform:translateX(-6912px)}42.6%{transform:translateX(-7104px)}43.7%{transform:translateX(-7296px)}44.2%{transform:translateX(-7488px)}45.2%{transform:translateX(-7680px)}45.6%{transform:translateX(-7872px)}50.2%{transform:translateX(-8064px)}51.1%{transform:translateX(-8256px)}52.1%{transform:translateX(-8448px)}59.5%{transform:translateX(-8832px)}69.6%{transform:translateX(-9024px)}69.8%{transform:translateX(-9600px)}76.7%{transform:translateX(-9792px)}78%{transform:translateX(-9984px)}78.8%{transform:translateX(-10176px)}79.7%{transform:translateX(-10368px)}82.8%{transform:translateX(-10752px)}82.9%{transform:translateX(-12288px)}to{transform:translateX(-12480px)}}.a{fill:#282d35}.f{fill:#fff;white-space:pre}.g,.h{font-weight:700}.g{fill:#a8cc8c;white-space:pre}.h{fill:#dbab79}.h,.i,.j{white-space:pre}.i{fill:#71bef2;font-weight:700}.j{fill:#b9c0cb}</style><g font-family="Monaco,Consolas,Menlo,'Bitstream Vera Sans Mono','Powerline Symbols',monospace" font-size="1.67"><defs><symbol id="1"><text y="1.67" class="f">[</text><text x="1.002" y="1.67" class="g">sadlaboka</text><text x="10.02" y="1.67" class="h">@</text><text x="11.022" y="1.67" class="f">HOME-PC</text><text x="19.038" y="1.67" class="f">temp]$</text></symbol><symbol id="2"><text y="1.67" class="f">[</text><text x="1.002" y="1.67" class="g">sadlaboka</text><text x="10.02" y="1.67" class="h">@</text><text x="11.022" y="1.67" class="f">HOME-PC</text><text x="19.038" y="1.67" class="f">temp]$</text><text x="26.052" y="1.67" class="f">ls</text></symbol><symbol id="3"><text y="1.67" class="f">[</text><text x="1.002" y="1.67" class="g">sadlaboka</text><text x="10.02" y="1.67" class="h">@</text><text x="11.022" y="1.67" class="f">HOME-PC</text><text x="19.038" y="1.67" class="f">temp]$</text><text x="26.052" y="1.67" class="f">page-loader</text></symbol><symbol id="4"><text y="1.67" class="f">[</text><text x="1.002" y="1.67" class="g">sadlaboka</text><text x="10.02" y="1.67" class="h">@</text><text x="11.022" y="1.67" class="f">HOME-PC</text><text x="19.038" y="1.67" class="f">temp]$</text><text x="26.052" y="1.67" class="f">page-loader</text><text x="38.076" y="1.67" class="f">https://wildberries.ru</text></symbol><symbol id="5"><text y="1.67" class="f">/var/tmp/temp/wildberries-ru.html</text></symbol><symbol id="6"><text y="1.67" class="f">[</text><text x="1.002" y="1.67" class="g">sadlaboka</text><text x="10.02" y="1.67" class="h">@</text><text x="11.022" y="1.67" class="f">HOME-PC</text><text x="19.038" y="1.67" class="f">temp]$</text><text x="26.052" y="1.67" class="f">tree</text></symbol><symbol id="7"><text y="1.67" class="i">.</text></symbol><symbol id="8"><text y="1.67" class="j">├──</text><text x="4.008" y="1.67" class="i">wildberries-ru_files</text></symbol><symbol id="9"><text y="1.67" class="j">│</text><text x="4.008" y="1.67" class="j">├──</text><text x="8.016" y="1.67" class="j">wildberries-ru-favicon-ico.ico</text></symbol><symbol id="10"><text y="1.67" class="j">│</text><text x="4.008" y="1.67" class="j">├──</text><text x="8.016" y="1.67" style="white-space:pre" fill="#d290e4" font-weight="700">wildberries-ru-i-header-logo-v1-svg.svg</text></symbol><symbol id="11"><text y="1.67" class="j">│</text><text x="4.008" y="1.67" class="j">├──</text><text x="8.016" y="1.67" class="j">wildberries-ru-j-app-min-js.js?7d354380a629e602</text></symbol><symbol id="12"><text y="1.67" class="j">│</text><text x="4.008" y="1.67" class="j">├──</text><text x="8.016" y="1.67" class="j">wildberries-ru-j-spa-customTags-banners-min-js.js?0e5431350779f312</text></symbol><symbol id="13"><text y="1.67" class="j">│</text><text x="4.008" y="1.67" class="j">├──</text><text x="8.016" y="1.67" class="j">wildberries-ru-j-spa-customTags-lazyBlockLoader-min-js.js?397326650f59580d</text></symbol><symbol id="14"><text y="1.67" class="j">│</text><text x="4.008" y="1.67" class="j">├──</text><text x="8.016" y="1.67" class="j">wildberries-ru-j-spa-customTags-spa-shortDeliveries-min-js.js?8800f315d2eb05dd</text></symbol><symbol id="15"><text y="1.67" class="j">│</text><text x="4.008" y="1.67" class="j">├──</text><text x="8.016" y="1.67" class="j">wildberries-ru-j-spa-customTags-spa-tooltip-min-js.js?1daba820f11ac7f6</text></symbol><symbol id="16"><text y="1.67" class="j">│</text><text x="4.008" y="1.67" class="j">├──</text><text x="8.016" y="1.67" class="j">wildberries-ru-j-spa-index-min-js.js?bb515555077b33e0</text></symbol><symbol id="17"><text y="1.67" class="j">│</text><text x="4.008" y="1.67" class="j">├──</text><text x="8.016" y="1.67" class="j">wildberries-ru-j-spa-polyfills-min-js.js?2058d70652748976</text></symbol><symbol id="18"><text y="1.67" class="j">│</text><text x="4.008" y="1.67" class="j">├──</text><text x="8.016" y="1.67" class="j">wildberries-ru-j-swiper-min-js.js?165fcbf1cf1fcbff</text></symbol><symbol id="19"><text y="1.67" class="j">│</text><text x="4.008" y="1.67" class="j">├──</text><text x="8.016" y="1.67" class="j">wildberries-ru-manifestv2-txt.txt</text></symbol><symbol id="20"><text y="1.67" class="j">│</text><text x="4.008" y="1.67" class="j">├──</text><text x="8.016" y="1.67" class="j">wildberries-ru-opensearch-xml.xml</text></symbol><symbol id="21"><text y="1.67" class="j">│</text><text x="4.008" y="1.67" class="j">├──</text><text x="8.016" y="1.67" class="j">wildberries-ru-r-js-templates-ru-ru-js.11</text></symbol><symbol id="22"><text y="1.67" class="j">│</text><text x="4.008" y="1.67" class="j">├──</text><text x="8.016" y="1.67" class="j">wildberries-ru-r-route-data-ru-js.11</text></symbol><symbol id="23"><text y="1.67" class="j">│</text><text x="4.008" y="1.67" class="j">├──</text><text x="8.016" y="1.67" class="j">wildberries-ru-s-desktop-style-views-site-main-page-v3-min-css.css?9baa0aa964f1f2b4</text></symbol><symbol id="24"><text y="1.67" class="j">│</text><text x="4.008" y="1.67" class="j">├──</text><text x="8.016" y="1.67" class="j">wildberries-ru-s-desktop-style-views-spa-common-min-css.css?873f03cc0551a5be</text></symbol><symbol id="25"><text y="1.67" class="j">│</text><text x="4.008" y="1.67" class="j">├──</text><text x="8.016" y="1.67" class="j">wildberries-ru-s-desktop-style-views-spa-main-v3-min-css.css?ce0040caea72bbdf</text></symbol><symbol id="26"><text y="1.67" class="j">│</text><text x="4.008" y="1.67" class="j">└──</text><text x="8.016" y="1.67" class="j">wildberries-ru-s-desktop-style-views-spa-preloader-min-css.css?11657bb6e8e72383</text></symbol><symbol id="27"><text y="1.67" class="j">└──</text><text x="4.008" y="1.67" class="j">wildberries-ru.html</text></symbol><symbol id="28"><text y="1.67" class="j">1</text><text x="2.004" y="1.67" class="j">directory,</text><text x="13.026" y="1.67" class="j">19</text><text x="16.032" y="1.67" class="j">files</text></symbol><symbol id="a"><path fill="transparent" d="M0 0h192v44H0z"/></symbol></defs><path class="a" d="M0 0h192v95.524H0z"/><g style="animation-duration:15.707657s;animation-iteration-count:infinite;animation-name:m;animation-timing-function:steps(1,end)"><svg width="12672"><svg><use xlink:href="#a"/></svg><svg x="192"><use xlink:href="#a"/></svg><svg x="384"><use xlink:href="#a"/></svg><svg x="576"><use xlink:href="#a"/><use xlink:href="#1"/></svg><svg x="768"><use xlink:href="#a"/><text y="1.67" class="f">[</text><text x="1.002" y="1.67" class="g">sadlaboka</text><text x="10.02" y="1.67" class="h">@</text><text x="11.022" y="1.67" class="f">HOME-PC</text><text x="19.038" y="1.67" class="f">temp]$</text><text x="26.052" y="1.67" class="f">l</text></svg><svg x="960"><use xlink:href="#a"/><use xlink:href="#2"/></svg><svg x="1152"><use xlink:href="#a"/><use xlink:href="#2"/></svg><svg x="1344"><use xlink:href="#a"/><use xlink:href="#2"/></svg><svg x="1536"><use xlink:href="#a"/><use xlink:href="#2"/></svg><svg x="1728"><use xlink:href="#a"/><use xlink:href="#2"/></svg><svg x="1920"><use xlink:href="#a"/><use xlink:href="#2"/><use xlink:href="#1" y="2.171"/></svg><svg x="2112"><use xlink:href="#a"/><use xlink:href="#2"/><text y="3.841" class="f">[</text><text x="1.002" y="3.841" class="g">sadlaboka</text><text x="10.02" y="3.841" class="h">@</text><text x="11.022" y="3.841" class="f">HOME-PC</text><text x="19.038" y="3.841" class="f">temp]$</text><text x="26.052" y="3.841" class="f">p</text></svg><svg x="2304"><use xlink:href="#a"/><use xlink:href="#2"/><text y="3.841" class="f">[</text><text x="1.002" y="3.841" class="g">sadlaboka</text><text x="10.02" y="3.841" class="h">@</text><text x="11.022" y="3.841" class="f">HOME-PC</text><text x="19.038" y="3.841" class="f">temp]$</text><text x="26.052" y="3.841" class="f">pa</text></svg><svg x="2496"><use xlink:href="#a"/><use xlink:href="#2"/><text y="3.841" class="f">[</text><text x="1.002" y="3.841" class="g">sadlaboka</text><text x="10.02" y="3.841" class="h">@</text><text x="11.022" y="3.841" class="f">HOME-PC</text><text x="19.038" y="3.841" class="f">temp]$</text><text x="26.052" y="3.841" class="f">pag</text></svg><svg x="2688"><use xlink:href="#a"/><use xlink:href="#2"/><text y="3.841" class="f">[</text><text x="1.002" y="3.841" class="g">sadlaboka</text><text x="10.02" y="3.841" class="h">@</text><text x="11.022" y="3.841" class="f">HOME-PC</text><text x="19.038" y="3.841" class="f">temp]$</text><text x="26.052" y="3.841" class="f">page</text></svg><svg x="2880"><use xlink:href="#a"/><use xlink:href="#2"/><text y="3.841" class="f">[</text><text x="1.002" y="3.841" class="g">sadlaboka</text><text x="10.02" y="3.841" class="h">@</text><text x="11.022" y="3.841" class="f">HOME-PC</text><text x="19.038" y="3.841" class="f">temp]$</text><text x="26.052" y="3.841" class="f">page-</text></svg><svg x="3072"><use xlink:href="#a"/><use xlink:href="#2"/><text y="3.841" class="f">[</text><text x="1.002" y="3.841" class="g">sadlaboka</text><text x="10.02" y="3.841" class="h">@</text><text x="11.022" y="3.841" class="f">HOME-PC</text><text x="19.038" y="3.841" class="f">temp]$</text><text x="26.052" y="3.841" class="f">page-l</text></svg><svg x="3264"><use xlink:href="#a"/><use xlink:href="#2"/><text y="3.841" class="f">[</text><text x="1.002" y="3.841" class="g">sadlaboka</text><text x="10.02" y="3.841" class="h">@</text><text x="11.022" y="3.841" class="f">HOME-PC</text><text x="19.038" y="3.841" class="f">temp]$</text><text x="26.052" y="3.841" class="f">page-lo</text></svg><svg x="3456"><use xlink:href="#a"/><use xlink:href="#2"/><text y="3.841" class="f">[</text><text x="1.002" y="3.841" class="g">sadlaboka</text><text x="10.02" y="3.841" class="h">@</text><text x="11.022" y="3.841" class="f">HOME-PC</text><text x="19.038" y="3.841" class="f">temp]$</text><text x="26.052" y="3.841" class="f">page-loa</text></svg><svg x="3648"><use xlink:href="#a"/><use xlink:href="#2"/><text y="3.841" class="f">[</text><text x="1.002" y="3.841" class="g">sadlaboka</text><text x="10.02" y="3.841" class="h">@</text><text x="11.022" y="3.841" class="f">HOME-PC</text><text x="19.038" y="3.841" class="f">temp]$</text><text x="26.052" y="3.841" class="f">page-load</text></svg><svg x="3840"><use xlink:href="#a"/><use xlink:href="#2"/><text y="3.841" class="f">[</text><text x="1.002" y="3.841" class="g">sadlaboka</text><text x="10.02" y="3.841" class="h">@</text><text x="11.022" y="3.841" class="f">HOME-PC</text><text x="19.038" y="3.841" class="f">temp]$</text><text x="26.052" y="3.841" class="f">page-loade</text></svg><svg x="4032"><use xlink:href="#a"/><use xlink:href="#2"/><use xlink:href="#3" y="2.171"/></svg><svg x="4224"><use xlink:href="#a"/><use xlink:href="#2"/><use xlink:href="#3" y="2.171"/></svg><svg x="4416"><use xlink:href="#a"/><use xlink:href="#2"/><text y="3.841" class="f">[</text><text x="1.002" y="3.841" class="g">sadlaboka</text><text x="10.02" y="3.841" class="h">@</text><text x="11.022" y="3.841" class="f">HOME-PC</text><text x="19.038" y="3.841" class="f">temp]$</text><text x="26.052" y="3.841" class="f">page-loader</text><text x="38.076" y="3.841" class="f">h</text></svg><svg x="4608"><use xlink:href="#a"/><use xlink:href="#2"/><text y="3.841" class="f">[</text><text x="1.002" y="3.841" class="g">sadlaboka</text><text x="10.02" y="3.841" class="h">@</text><text x="11.022" y="3.841" class="f">HOME-PC</text><text x="19.038" y="3.841" class="f">temp]$</text><text x="26.052" y="3.841" class="f">page-loader</text><text x="38.076" y="3.841" class="f">ht</text></svg><svg x="4800"><use xlink:href="#a"/><use xlink:href="#2"/><text y="3.841" class="f">[</text><text x="1.002" y="3.841" class="g">sadlaboka</text><text x="10.02" y="3.841" class="h">@</text><text x="11.022" y="3.841" class="f">HOME-PC</text><text x="19.038" y="3.841" class="f">temp]$</text><text x="26.052" y="3.841" class="f">page-loader</text><text x="38.076" y="3.841" class="f">htt</text></svg><svg x="4992"><use xlink:href="#a"/><use xlink:href="#2"/><text y="3.841" class="f">[</text><text x="1.002" y="3.841" class="g">sadlaboka</text><text x="10.02" y="3.841" class="h">@</text><text x="11.022" y="3.841" class="f">HOME-PC</text><text x="19.038" y="3.841" class="f">temp]$</text><text x="26.052" y="3.841" class="f">page-loader</text><text x="38.076" y="3.841" class="f">http</text></svg><svg x="5184"><use xlink:href="#a"/><use xlink:href="#2"/><text y="3.841" class="f">[</text><text x="1.002" y="3.841" class="g">sadlaboka</text><text x="10.02" y="3.841" class="h">@</text><text x="11.022" y="3.841" class="f">HOME-PC</text><text x="19.038" y="3.841" class="f">temp]$</text><text x="26.052" y="3.841" class="f">page-loader</text><text x="38.076" y="3.841" class="f">https</text></svg><svg x="5376"><use xlink:href="#a"/><use xlink:href="#2"/><text y="3.841" class="f">[</text><text x="1.002" y="3.841" class="g">sadlaboka</text><text x="10.02" y="3.841" class="h">@</text><text x="11.022" y="3.841" class="f">HOME-PC</text><text x="19.038" y="3.841" class="f">temp]$</text><text x="26.052" y="3.841" class="f">page-loader</text><text x="38.076" y="3.841" class="f">https:</text></svg><svg x="5568"><use xlink:href="#a"/><use xlink:href="#2"/><text y="3.841" class="f">[</text><text x="1.002" y="3.841" class="g">sadlaboka</text><text x="10.02" y="3.841" class="h">@</text><text x="11.022" y="3.841" class="f">HOME-PC</text><text x="19.038" y="3.841" class="f">temp]$</text><text x="26.052" y="3.841" class="f">page-loader</text><text x="38.076" y="3.841" class="f">https:/</text></svg><svg x="5760"><use xlink:href="#a"/><use xlink:href="#2"/><text y="3.841" class="f">[</text><text x="1.002" y="3.841" class="g">sadlaboka</text><text x="10.02" y="3.841" class="h">@</text><text x="11.022" y="3.841" class="f">HOME-PC</text><text x="19.038" y="3.841" class="f">temp]$</text><text x="26.052" y="3.841" class="f">page-loader</text><text x="38.076" y="3.841" class="f">https://</text></svg><svg x="5952"><use xlink:href="#a"/><use xlink:href="#2"/><text y="3.841" class="f">[</text><text x="1.002" y="3.841" class="g">sadlaboka</text><text x="10.02" y="3.841" class="h">@</text><text x="11.022" y="3.841" class="f">HOME-PC</text><text x="19.038" y="3.841" class="f">temp]$</text><text x="26.052" y="3.841" class="f">page-loader</text><text x="38.076" y="3.841" class="f">https://w</text></svg><svg x="6144"><use xlink:href="#a"/><use xlink:href="#2"/><text y="3.841" class="f">[</text><text x="1.002" y="3.841" class="g">sadlaboka</text><text x="10.02" y="3.841" class="h">@</text><text x="11.022" y="3.841" class="f">HOME-PC</text><text x="19.038" y="3.841" class="f">temp]$</text><text x="26.052" y="3.841" class="f">page-loader</text><text x="38.076" y="3.841" class="f">https://wi</text></svg><svg x="6336"><use xlink:href="#a"/><use xlink:href="#2"/><text y="3.841" class="f">[</text><text x="1.002" y="3.841" class="g">sadlaboka</text><text x="10.02" y="3.841" class="h">@</text><text x="11.022" y="3.841" class="f">HOME-PC</text><text x="19.038" y="3.841" class="f">temp]$</text><text x="26.052" y="3.841" class="f">page-loader</text><text x="38.076" y="3.841" class="f">https://wil</text></svg><svg x="6528"><use xlink:href="#a"/><use xlink:href="#2"/><text y="3.841" class="f">[</text><text x="1.002" y="3.841" class="g">sadlaboka</text><text x="10.02" y="3.841" class="h">@</text><text x="11.022" y="3.841" class="f">HOME-PC</text><text x="19.038" y="3.841" class="f">temp]$</text><text x="26.052" y="3.841" class="f">page-loader</text><text x="38.076" y="3.841" class="f">https://wild</text></svg><svg x="6720"><use xlink:href="#a"/><use xlink:href="#2"/><text y="3.841" class="f">[</text><text x="1.002" y="3.841" class="g">sadlaboka</text><text x="10.02" y="3.841" class="h">@</text><text x="11.022" y="3.841" class="f">HOME-PC</text><text x="19.038" y="3.841" class="f">temp]$</text><text x="26.052" y="3.841" class="f">page-loader</text><text x="38.076" y="3.841" class="f">https://wildb</text></svg><svg x="6912"><use xlink:href="#a"/><use xlink:href="#2"/><text y="3.841" class="f">[</text><text x="1.002" y="3.841" class="g">sadlaboka</text><text x="10.02" y="3.841" class="h">@</text><text x="11.022" y="3.841" class="f">HOME-PC</text><text x="19.038" y="3.841" class="f">temp]$</text><text x="26.052" y="3.841" class="f">page-loader</text><text x="38.076" y="3.841" class="f">https://wildbe</text></svg><svg x="7104"><use xlink:href="#a"/><use xlink:href="#2"/><text y="3.841" class="f">[</text><text x="1.002" y="3.841" class="g">sadlaboka</text><text x="10.02" y="3.841" class="h">@</text><text x="11.022" y="3.841" class="f">HOME-PC</text><text x="19.038" y="3.841" class="f">temp]$</text><text x="26.052" y="3.841" class="f">page-loader</text><text x="38.076" y="3.841" class="f">https://wildber</text></svg><svg x="7296"><use xlink:href="#a"/><use xlink:href="#2"/><text y="3.841" class="f">[</text><text x="1.002" y="3.841" class="g">sadlaboka</text><text x="10.02" y="3.841" class="h">@</text><text x="11.022" y="3.841" class="f">HOME-PC</text><text x="19.038" y="3.841" class="f">temp]$</text><text x="26.052" y="3.841" class="f">page-loader</text><text x="38.076" y="3.841" class="f">https://wildberr</text></svg><svg x="7488"><use xlink:href="#a"/><use xlink:href="#2"/><text y="3.841" class="f">[</text><text x="1.002" y="3.841" class="g">sadlaboka</text><text x="10.02" y="3.841" class="h">@</text><text x="11.022" y="3.841" class="f">HOME-PC</text><text x="19.038" y="3.841" class="f">temp]$</text><text x="26.052" y="3.841" class="f">page-loader</text><text x="38.076" y="3.841" class="f">https://wildberri</text></svg><svg x="7680"><use xlink:href="#a"/><use xlink:href="#2"/><text y="3.841" class="f">[</text><text x="1.002" y="3.841" class="g">sadlaboka</text><text x="10.02" y="3.841" class="h">@</text><text x="11.022" y="3.841" class="f">HOME-PC</text><text x="19.038" y="3.841" class="f">temp]$</text><text x="26.052" y="3.841" class="f">page-loader</text><text x="38.076" y="3.841" class="f">https://wildberrie</text></svg><svg x="7872"><use xlink:href="#a"/><use xlink:href="#2"/><text y="3.841" class="f">[</text><text x="1.002" y="3.841" class="g">sadlaboka</text><text x="10.02" y="3.841" class="h">@</text><text x="11.022" y="3.841" class="f">HOME-PC</text><text x="19.038" y="3.841" class="f">temp]$</text><text x="26.052" y="3.841" class="f">page-loader</text><text x="38.076" y="3.841" class="f">https://wildberries</text></svg><svg x="8064"><use xlink:href="#a"/><use xlink:href="#2"/><text y="3.841" class="f">[</text><text x="1.002" y="3.841" class="g">sadlaboka</text><text x="10.02" y="3.841" class="h">@</text><text x="11.022" y="3.841" class="f">HOME-PC</text><text x="19.038" y="3.841" class="f">temp]$</text><text x="26.052" y="3.841" class="f">page-loader</text><text x="38.076" y="3.841" class="f">https://wildberries.</text></svg><svg x="8256"><use xlink:href="#a"/><use xlink:href="#2"/><text y="3.841" class="f">[</text><text x="1.002" y="3.841" class="g">sadlaboka</text><text x="10.02" y="3.841" class="h">@</text><text x="11.022" y="3.841" class="f">HOME-PC</text><text x="19.038" y="3.841" class="f">temp]$</text><text x="26.052" y="3.841" class="f">page-loader</text><text x="38.076" y="3.841" class="f">https://wildberries.r</text></svg><svg x="8448"><use xlink:href="#a"/><use xlink:href="#2"/><use xlink:href="#4" y="2.171"/></svg><svg x="8640"><use xlink:href="#a"/><use xlink:href="#2"/><use xlink:href="#4" y="2.171"/></svg><svg x="8832"><use xlink:href="#a"/><use xlink:href="#2"/><use xlink:href="#4" y="2.171"/></svg><svg x="9024"><use xlink:href="#a"/><use xlink:href="#2"/><use xlink:href="#4" y="2.171"/><use xlink:href="#5" y="4.342"/></svg><svg x="9216"><use xlink:href="#a"/><use xlink:href="#2"/><use xlink:href="#4" y="2.171"/><use xlink:href="#5" y="4.342"/></svg><svg x="9408"><use xlink:href="#a"/><use xlink:href="#2"/><use xlink:href="#4" y="2.171"/><use xlink:href="#5" y="4.342"/></svg><svg x="9600"><use xlink:href="#a"/><use xlink:href="#2"/><use xlink:href="#4" y="2.171"/><use xlink:href="#5" y="4.342"/><use xlink:href="#1" y="6.513"/></svg><svg x="9792"><use xlink:href="#a"/><use xlink:href="#2"/><use xlink:href="#4" y="2.171"/><use xlink:href="#5" y="4.342"/><text y="8.183" class="f">[</text><text x="1.002" y="8.183" class="g">sadlaboka</text><text x="10.02" y="8.183" class="h">@</text><text x="11.022" y="8.183" class="f">HOME-PC</text><text x="19.038" y="8.183" class="f">temp]$</text><text x="26.052" y="8.183" class="f">t</text></svg><svg x="9984"><use xlink:href="#a"/><use xlink:href="#2"/><use xlink:href="#4" y="2.171"/><use xlink:href="#5" y="4.342"/><text y="8.183" class="f">[</text><text x="1.002" y="8.183" class="g">sadlaboka</text><text x="10.02" y="8.183" class="h">@</text><text x="11.022" y="8.183" class="f">HOME-PC</text><text x="19.038" y="8.183" class="f">temp]$</text><text x="26.052" y="8.183" class="f">tr</text></svg><svg x="10176"><use xlink:href="#a"/><use xlink:href="#2"/><use xlink:href="#4" y="2.171"/><use xlink:href="#5" y="4.342"/><text y="8.183" class="f">[</text><text x="1.002" y="8.183" class="g">sadlaboka</text><text x="10.02" y="8.183" class="h">@</text><text x="11.022" y="8.183" class="f">HOME-PC</text><text x="19.038" y="8.183" class="f">temp]$</text><text x="26.052" y="8.183" class="f">tre</text></svg><svg x="10368"><use xlink:href="#a"/><use xlink:href="#2"/><use xlink:href="#4" y="2.171"/><use xlink:href="#5" y="4.342"/><use xlink:href="#6" y="6.513"/></svg><svg x="10560"><use xlink:href="#a"/><use xlink:href="#2"/><use xlink:href="#4" y="2.171"/><use xlink:href="#5" y="4.342"/><use xlink:href="#6" y="6.513"/></svg><svg x="10752"><use xlink:href="#a"/><use xlink:href="#2"/><use xlink:href="#4" y="2.171"/><use xlink:href="#5" y="4.342"/><use xlink:href="#6" y="6.513"/></svg><svg x="10944"><use xlink:href="#a"/><use xlink:href="#2"/><use xlink:href="#4" y="2.171"/><use xlink:href="#5" y="4.342"/><use xlink:href="#6" y="6.513"/><use xlink:href="#7" y="8.684"/></svg><svg x="11136"><use xlink:href="#a"/><use xlink:href="#2"/><use xlink:href="#4" y="2.171"/><use xlink:href="#5" y="4.342"/><use xlink:href="#6" y="6.513"/><use xlink:href="#7" y="8.684"/><use xlink:href="#8" y="10.855"/><use xlink:href="#9" y="13.026"/><use xlink:href="#10" y="15.197"/><use xlink:href="#11" y="17.368"/><use xlink:href="#12" y="19.539"/><use xlink:href="#13" y="21.71"/></svg><svg x="11328"><use xlink:href="#a"/><use xlink:href="#2"/><use xlink:href="#4" y="2.171"/><use xlink:href="#5" y="4.342"/><use xlink:href="#6" y="6.513"/><use xlink:href="#7" y="8.684"/><use xlink:href="#8" y="10.855"/><use xlink:href="#9" y="13.026"/><use xlink:href="#10" y="15.197"/><use xlink:href="#11" y="17.368"/><use xlink:href="#12" y="19.539"/><use xlink:href="#13" y="21.71"/><use xlink:href="#14" y="23.881"/><use xlink:href="#15" y="26.052"/><use xlink:href="#16" y="28.223"/></svg><svg x="11520"><use xlink:href="#a"/><use xlink:href="#2"/><use xlink:href="#4" y="2.171"/><use xlink:href="#5" y="4.342"/><use xlink:href="#6" y="6.513"/><use xlink:href="#7" y="8.684"/><use xlink:href="#8" y="10.855"/><use xlink:href="#9" y="13.026"/><use xlink:href="#10" y="15.197"/><use xlink:href="#11" y="17.368"/><use xlink:href="#12" y="19.539"/><use xlink:href="#13" y="21.71"/><use xlink:href="#14" y="23.881"/><use xlink:href="#15" y="26.052"/><use xlink:href="#16" y="28.223"/><use xlink:href="#17" y="30.394"/><use xlink:href="#18" y="32.565"/><use xlink:href="#19" y="34.736"/><use xlink:href="#20" y="36.907"/><use xlink:href="#21" y="39.078"/><use xlink:href="#22" y="41.249"/><use xlink:href="#23" y="43.42"/><use xlink:href="#24" y="45.591"/><use xlink:href="#25" y="47.762"/></svg><svg x="11712"><use xlink:href="#a"/><use xlink:href="#2"/><use xlink:href="#4" y="2.171"/><use xlink:href="#5" y="4.342"/><use xlink:href="#6" y="6.513"/><use xlink:href="#7" y="8.684"/><use xlink:href="#8" y="10.855"/><use xlink:href="#9" y="13.026"/><use xlink:href="#10" y="15.197"/><use xlink:href="#11" y="17.368"/><use xlink:href="#12" y="19.539"/><use xlink:href="#13" y="21.71"/><use xlink:href="#14" y="23.881"/><use xlink:href="#15" y="26.052"/><use xlink:href="#16" y="28.223"/><use xlink:href="#17" y="30.394"/><use xlink:href="#18" y="32.565"/><use xlink:href="#19" y="34.736"/><use xlink:href="#20" y="36.907"/><use xlink:href="#21" y="39.078"/><use xlink:href="#22" y="41.249"/><use xlink:href="#23" y="43.42"/><use xlink:href="#24" y="45.591"/><use xlink:href="#25" y="47.762"/><use xlink:href="#26" y="49.933"/><use xlink:href="#27" y="52.104"/><use xlink:href="#28" y="56.446"/></svg><svg x="11904"><use xlink:href="#a"/><use xlink:href="#2"/><use xlink:href="#4" y="2.171"/><use xlink:href="#5" y="4.342"/><use xlink:href="#6" y="6.513"/><use xlink:href="#7" y="8.684"/><use xlink:href="#8" y="10.855"/><use xlink:href="#9" y="13.026"/><use xlink:href="#10" y="15.197"/><use xlink:href="#11" y="17.368"/><use xlink:href="#12" y="19.539"/><use xlink:href="#13" y="21.71"/><use xlink:href="#14" y="23.881"/><use xlink:href="#15" y="26.052"/><use xlink:href="#16" y="28.223"/><use xlink:href="#17" y="30.394"/><use xlink:href="#18" y="32.565"/><use xlink:href="#19" y="34.736"/><use xlink:href="#20" y="36.907"/><use xlink:href="#21" y="39.078"/><use xlink:href="#22" y="41.249"/><use xlink:href="#23" y="43.42"/><use xlink:href="#24" y="45.591"/><use xlink:href="#25" y="47.762"/><use xlink:href="#26" y="49.933"/><use xlink:href="#27" y="52.104"/><use xlink:href="#28" y="56.446"/></svg><svg x="12096"><use xlink:href="#a"/><use xlink:href="#2"/><use xlink:href="#4" y="2.171"/><use xlink:href="#5" y="4.342"/><use xlink:href="#6" y="6.513"/><use xlink:href="#7" y="8.684"/><use xlink:href="#8" y="10.855"/><use xlink:href="#9" y="13.026"/><use xlink:href="#10" y="15.197"/><use xlink:href="#11" y="17.368"/><use xlink:href="#12" y="19.539"/><use xlink:href="#13" y="21.71"/><use xlink:href="#14" y="23.881"/><use xlink:href="#15" y="26.052"/><use xlink:href="#16" y="28.223"/><use xlink:href="#17" y="30.394"/><use xlink:href="#18" y="32.565"/><use xlink:href="#19" y="34.736"/><use xlink:href="#20" y="36.907"/><use xlink:href="#21" y="39.078"/><use xlink:href="#22" y="41.249"/><use xlink:href="#23" y="43.42"/><use xlink:href="#24" y="45.591"/><use xlink:href="#25" y="47.762"/><use xlink:href="#26" y="49.933"/><use xlink:href="#27" y="52.104"/><use xlink:href="#28" y="56.446"/></svg><svg x="12288"><use xlink:href="#a"/><use xlink:href="#2"/><use xlink:href="#4" y="2.171"/><use xlink:href="#5" y="4.342"/><use xlink:href="#6" y="6.513"/><use xlink:href="#7" y="8.684"/><use xlink:href="#8" y="10.855"/><use xlink:href="#9" y="13.026"/><use xlink:href="#10" y="15.197"/><use xlink:href="#11" y="17.368"/><use xlink:href="#12" y="19.539"/><use xlink:href="#13" y="21.71"/><use xlink:href="#14" y="23.881"/><use xlink:href="#15" y="26.052"/><use xlink:href="#16" y="28.223"/><use xlink:href="#17" y="30.394"/><use xlink:href="#18" y="32.565"/><use xlink:href="#19" y="34.736"/><use xlink:href="#20" y="36.907"/><use xlink:href="#21" y="39.078"/><use xlink:href="#22" y="41.249"/><use xlink:href="#23" y="43.42"/><use xlink:href="#24" y="45.591"/><use xlink:href="#25" y="47.762"/><use xlink:href="#26" y="49.933"/><use xlink:href="#27" y="52.104"/><use xlink:href="#28" y="56.446"/><use xlink:href="#1" y="58.617"/></svg><svg x="12480"><use xlink:href="#a"/><use xlink:href="#2"/><use xlink:href="#4" y="2.171"/><use xlink:href="#5" y="4.342"/><use xlink:href="#6" y="6.513"/><use xlink:href="#7" y="8.684"/><use xlink:href="#8" y="10.855"/><use xlink:href="#9" y="13.026"/><use xlink:href="#10" y="15.197"/><use xlink:href="#11" y="17.368"/><use xlink:href="#12" y="19.539"/><use xlink:href="#13" y="21.71"/><use xlink:href="#14" y="23.881"/><use xlink:href="#15" y="26.052"/><use xlink:href="#16" y="28.223"/><use xlink:href="#17" y="30.394"/><use xlink:href="#18" y="32.565"/><use xlink:href="#19" y="34.736"/><use xlink:href="#20" y="36.907"/><use xlink:href="#21" y="39.078"/><use xlink:href="#22" y="41.249"/><use xlink:href="#23" y="43.42"/><use xlink:href="#24" y="45.591"/><use xlink:href="#25" y="47.762"/><use xlink:href="#26" y="49.933"/><use xlink:href="#27" y="52.104"/><use xlink:href="#28" y="56.446"/><use xlink:href="#1" y="58.617"/><text y="62.458" class="f">exit</text></svg></svg></g></g></svg></svg>